<svg width="70" height="67" viewBox="0 0 70 67" fill="none" xmlns="http://www.w3.org/2000/svg">
<rect x="16.7891" y="28.5295" width="15.5454" height="50.0908" transform="rotate(-53.0672 16.7891 28.5295)" fill="url(#paint0_linear_14_4385)"/>
<rect x="23.4314" y="19.6932" width="10.3636" height="50.0908" transform="rotate(-53.0672 23.4314 19.6932)" fill="url(#paint1_linear_14_4385)"/>
<rect x="27.7905" y="13.8943" width="6.56362" height="50.0908" transform="rotate(-53.0672 27.7905 13.8943)" fill="url(#paint2_linear_14_4385)"/>
<rect x="10.7693" y="36.5374" width="6.56362" height="50.0908" transform="rotate(-53.0672 10.7693 36.5374)" fill="url(#paint3_linear_14_4385)"/>
<rect x="13.0527" y="33.4999" width="10.3636" height="50.0908" transform="rotate(-53.0672 13.0527 33.4999)" fill="url(#paint4_linear_14_4385)"/>
<circle cx="24.3246" cy="24.2541" r="17.4272" transform="rotate(-53.0672 24.3246 24.2541)" fill="url(#paint5_radial_14_4385)" stroke="white"/>
<path fill-rule="evenodd" clip-rule="evenodd" d="M12.8525 11.8033C10.0137 17.976 15.2997 22.4399 21.9375 27.4297C28.5754 32.4195 34.3324 36.2567 39.473 31.8144C39.0216 32.7164 38.4829 33.5904 37.8553 34.4253C32.2379 41.8981 21.6262 43.4022 14.1534 37.7848C6.68068 32.1674 5.1766 21.5557 10.794 14.0829C11.4216 13.248 12.1116 12.4876 12.8525 11.8033Z" fill="white" fill-opacity="0.2"/>
<path fill-rule="evenodd" clip-rule="evenodd" d="M9.53336 16.2587C14.7978 11.8255 21.1195 15.5783 27.7487 20.5616C34.3472 25.5218 39.0441 30.0425 36.1852 36.1773C36.9363 35.4866 37.6353 34.718 38.2704 33.8731C43.8878 26.4003 42.3838 15.7887 34.911 10.1713C27.4382 4.55386 16.8266 6.05793 11.2092 13.5307C10.5544 14.4017 9.99644 15.3153 9.53336 16.2587Z" fill="white" fill-opacity="0.2"/>
<g style="mix-blend-mode:lighten">
<ellipse cx="18.94" cy="20.2064" rx="12.4363" ry="10.1909" transform="rotate(-53.0672 18.94 20.2064)" fill="url(#paint6_linear_14_4385)" fill-opacity="0.2"/>
</g>
<g style="mix-blend-mode:lighten">
<path d="M40.0814 20.5405C37.7939 18.8209 32.5938 21.8776 28.4667 27.3678C24.3396 32.858 22.8484 38.7027 25.136 40.4223C27.4236 42.1419 33.314 39.6042 37.4411 34.114C41.5682 28.6238 42.369 22.2602 40.0814 20.5405Z" fill="url(#paint7_linear_14_4385)" fill-opacity="0.2"/>
</g>
<defs>
<linearGradient id="paint0_linear_14_4385" x1="24.5618" y1="28.5295" x2="24.5618" y2="78.6203" gradientUnits="userSpaceOnUse">
<stop stop-color="white"/>
<stop offset="1" stop-color="white" stop-opacity="0"/>
</linearGradient>
<linearGradient id="paint1_linear_14_4385" x1="28.6132" y1="19.6932" x2="28.6132" y2="69.784" gradientUnits="userSpaceOnUse">
<stop stop-color="white"/>
<stop offset="0.708333" stop-color="white" stop-opacity="0"/>
</linearGradient>
<linearGradient id="paint2_linear_14_4385" x1="31.0723" y1="13.8943" x2="31.0723" y2="63.9851" gradientUnits="userSpaceOnUse">
<stop stop-color="white"/>
<stop offset="0.708333" stop-color="white" stop-opacity="0"/>
</linearGradient>
<linearGradient id="paint3_linear_14_4385" x1="14.0511" y1="36.5374" x2="14.0511" y2="86.6282" gradientUnits="userSpaceOnUse">
<stop stop-color="white"/>
<stop offset="0.708333" stop-color="white" stop-opacity="0"/>
</linearGradient>
<linearGradient id="paint4_linear_14_4385" x1="18.2345" y1="33.4999" x2="18.2345" y2="83.5907" gradientUnits="userSpaceOnUse">
<stop stop-color="white"/>
<stop offset="0.708333" stop-color="white" stop-opacity="0"/>
</linearGradient>
<radialGradient id="paint5_radial_14_4385" cx="0" cy="0" r="1" gradientUnits="userSpaceOnUse" gradientTransform="translate(24.3246 24.2541) rotate(90) scale(16.9272)">
<stop stop-color="#FF7A00"/>
<stop offset="1" stop-color="#B53600"/>
</radialGradient>
<linearGradient id="paint6_linear_14_4385" x1="18.94" y1="10.0155" x2="18.94" y2="30.3973" gradientUnits="userSpaceOnUse">
<stop stop-color="white"/>
<stop offset="0.739583" stop-color="white" stop-opacity="0"/>
</linearGradient>
<linearGradient id="paint7_linear_14_4385" x1="36.7508" y1="33.5951" x2="28.4667" y2="27.3678" gradientUnits="userSpaceOnUse">
<stop offset="0.109375" stop-color="white"/>
<stop offset="0.739583" stop-color="white" stop-opacity="0"/>
</linearGradient>
</defs>
</svg>
