<svg width="26" height="26" viewBox="0 0 26 26" fill="none" xmlns="http://www.w3.org/2000/svg">
<circle cx="12.8643" cy="12.8643" r="12.3643" fill="url(#paint0_radial_22_1013)" stroke="white"/>
<path fill-rule="evenodd" clip-rule="evenodd" d="M15.0085 1.19324C10.3546 2.20243 10.0799 7.04394 10.0799 12.8644C10.0799 18.6848 10.3546 23.5263 15.0085 24.5355C14.313 24.6624 13.5964 24.7287 12.8643 24.7287C6.31185 24.7287 1 19.4168 1 12.8643C1 6.31185 6.31185 1 12.8643 1C13.5964 1 14.313 1.06631 15.0085 1.19324Z" fill="white" fill-opacity="0.2"/>
<path fill-rule="evenodd" clip-rule="evenodd" d="M11.1143 1.21004C15.8153 2.29241 16.3752 7.41471 16.3752 13.2275C16.3752 19.0135 15.8205 23.5488 11.1794 24.5309C11.8827 24.6608 12.6077 24.7287 13.3485 24.7287C19.901 24.7287 25.2129 19.4168 25.2129 12.8643C25.2129 6.31185 19.901 1 13.3485 1C12.5848 1 11.8379 1.07216 11.1143 1.21004Z" fill="white" fill-opacity="0.2"/>
<g style="mix-blend-mode:lighten">
<ellipse cx="12.8644" cy="8.14282" rx="8.71666" ry="7.14282" fill="url(#paint1_linear_22_1013)" fill-opacity="0.2"/>
</g>
<g style="mix-blend-mode:lighten">
<path d="M21.581 20.1283C21.581 18.1224 17.6785 16.4963 12.8644 16.4963C8.05029 16.4963 4.14771 18.1224 4.14771 20.1283C4.14771 22.1341 8.05029 24.3655 12.8644 24.3655C17.6785 24.3655 21.581 22.1341 21.581 20.1283Z" fill="url(#paint2_linear_22_1013)" fill-opacity="0.2"/>
</g>
<defs>
<radialGradient id="paint0_radial_22_1013" cx="0" cy="0" r="1" gradientUnits="userSpaceOnUse" gradientTransform="translate(12.8643 12.8643) rotate(90) scale(11.8643)">
<stop stop-color="#9E9E9E"/>
<stop offset="1" stop-color="#555555"/>
</radialGradient>
<linearGradient id="paint1_linear_22_1013" x1="12.8644" y1="1" x2="12.8644" y2="15.2856" gradientUnits="userSpaceOnUse">
<stop stop-color="white"/>
<stop offset="0.739583" stop-color="white" stop-opacity="0"/>
</linearGradient>
<linearGradient id="paint2_linear_22_1013" x1="12.8644" y1="23.7602" x2="12.8644" y2="16.4963" gradientUnits="userSpaceOnUse">
<stop offset="0.109375" stop-color="white"/>
<stop offset="0.739583" stop-color="white" stop-opacity="0"/>
</linearGradient>
</defs>
</svg>
