<svg width="42" height="42" viewBox="0 0 42 42" fill="none" xmlns="http://www.w3.org/2000/svg">
<path d="M26.9759 12.8617C26.4694 12.862 25.9787 13.0379 25.5873 13.3594C25.1959 13.6809 24.9281 14.1282 24.8296 14.6251C24.731 15.1219 24.8078 15.6375 25.0468 16.0841C25.2857 16.5307 25.6722 16.8806 26.1402 17.0743C26.6083 17.2679 27.129 17.2932 27.6136 17.146C28.0983 16.9987 28.5169 16.688 28.7981 16.2667C29.0793 15.8454 29.2058 15.3397 29.1559 14.8356C29.1061 14.3316 28.883 13.8604 28.5247 13.5024C28.3215 13.2988 28.0801 13.1374 27.8143 13.0274C27.5485 12.9175 27.2636 12.8611 26.9759 12.8617Z" fill="black"/>
<g filter="url(#filter0_i_14_4401)">
<path d="M39.1651 4.10648C39.1647 4.10404 39.1647 4.10155 39.1651 4.0991C39.0957 3.79502 38.9428 3.51638 38.7235 3.29461C38.5042 3.07285 38.2272 2.91678 37.924 2.84402C35.4794 2.24765 31.6338 2.8834 27.3723 4.58965C23.0771 6.3123 19.0527 8.85527 16.3325 11.5803C15.4606 12.4476 14.6506 13.3749 13.9085 14.3555C12.0767 14.2734 10.4632 14.5343 9.10392 15.1274C4.36744 17.2118 3.01474 22.5463 2.65462 24.7365C2.60251 25.0477 2.62292 25.3668 2.71425 25.6688C2.80558 25.9708 2.96537 26.2477 3.18119 26.4779C3.39701 26.7081 3.66303 26.8854 3.95856 26.9959C4.25408 27.1065 4.57114 27.1474 4.88505 27.1154H4.89572L10.172 26.5396C10.1785 26.6068 10.1859 26.6684 10.1917 26.725C10.2594 27.3679 10.5461 27.968 11.0038 28.4247L13.5787 31.0013C14.0347 31.4595 14.6347 31.7466 15.2776 31.8142L15.454 31.833L14.8797 37.1027V37.1134C14.8504 37.3972 14.8806 37.684 14.9684 37.9555C15.0562 38.227 15.1997 38.4771 15.3897 38.69C15.5797 38.9029 15.8121 39.0737 16.0719 39.1917C16.3317 39.3096 16.6132 39.3721 16.8985 39.375C17.0126 39.3751 17.1264 39.3658 17.239 39.3471C19.4415 38.9927 24.7735 37.6564 26.8522 32.8945C27.4404 31.5443 27.7004 29.9373 27.6274 28.1088C28.6124 27.3683 29.5431 26.5582 30.4124 25.6848C33.1547 22.9564 35.7058 18.9648 37.4104 14.732C39.1077 10.5189 39.7467 6.64453 39.1651 4.10648ZM30.3828 18.4521C29.7088 19.1268 28.8498 19.5865 27.9145 19.7729C26.9792 19.9593 26.0096 19.8642 25.1284 19.4994C24.2471 19.1347 23.4939 18.5168 22.964 17.7239C22.434 16.9309 22.1511 15.9987 22.1511 15.0449C22.1511 14.0912 22.434 13.1589 22.964 12.366C23.4939 11.5731 24.2471 10.9552 25.1284 10.5905C26.0096 10.2257 26.9792 10.1305 27.9145 10.317C28.8498 10.5034 29.7088 10.963 30.3828 11.6378C30.8346 12.0828 31.1934 12.6132 31.4382 13.1981C31.6831 13.783 31.8092 14.4108 31.8092 15.0449C31.8092 15.6791 31.6831 16.3069 31.4382 16.8918C31.1934 17.4767 30.8346 18.0071 30.3828 18.4521Z" fill="url(#paint0_linear_14_4401)"/>
</g>
<path d="M38.6712 4.18428L38.6739 4.20134L38.6777 4.21816C39.2251 6.60676 38.6308 10.3645 36.9467 14.5452L36.9466 14.5452C35.2629 18.7262 32.7462 22.6575 30.0597 25.3303L30.058 25.3321C29.2055 26.1886 28.2928 26.983 27.3269 27.7092L27.1173 27.8668L27.1278 28.1288C27.1985 29.8997 26.9455 31.4283 26.394 32.6945C25.4136 34.9404 23.6617 36.3918 21.8609 37.3302C20.0575 38.2701 18.2313 38.681 17.1595 38.8535L17.1572 38.8538C17.0726 38.8679 16.987 38.8749 16.9013 38.875C16.6864 38.8725 16.4743 38.8253 16.2786 38.7364C16.0821 38.6472 15.9064 38.518 15.7627 38.357C15.6191 38.1961 15.5105 38.0069 15.4441 37.8016C15.3777 37.5963 15.3549 37.3794 15.3771 37.1648L15.3797 37.1392V37.1299L15.951 31.8872L16.0053 31.3892L15.5071 31.3359L15.3308 31.317L15.3299 31.3169C14.8013 31.2614 14.308 31.0253 13.9332 30.6486L13.9324 30.6478L11.3574 28.0712L11.3569 28.0707C10.9807 27.6953 10.7449 27.202 10.689 26.6735C10.6853 26.637 10.6825 26.6118 10.6798 26.5876C10.6766 26.5593 10.6737 26.5325 10.6696 26.491L10.6205 25.9876L10.1177 26.0425L4.86852 26.6154H4.85966L4.83439 26.618C4.59701 26.6422 4.35725 26.6113 4.13378 26.5276C3.91031 26.444 3.70914 26.31 3.54594 26.1359C3.38274 25.9618 3.26191 25.7525 3.19285 25.5241C3.12378 25.2957 3.10835 25.0544 3.14776 24.8191L3.148 24.8176C3.32321 23.752 3.73957 21.9276 4.68136 20.1237C5.62186 18.3223 7.07136 16.5684 9.30461 15.5853C10.5796 15.0292 12.1139 14.7756 13.8861 14.855L14.1486 14.8667L14.3072 14.6572C15.0352 13.6953 15.8298 12.7856 16.6851 11.9348L16.6864 11.9336C19.3497 9.26549 23.3129 6.75648 27.5581 5.05382C31.7922 3.35858 35.5162 2.77129 37.8055 3.32978L37.8073 3.33022C38.02 3.38124 38.2142 3.49068 38.3679 3.64619C38.515 3.79488 38.6195 3.98003 38.6709 4.18237C38.671 4.18301 38.6711 4.18364 38.6712 4.18428ZM28.0122 20.2633C29.0439 20.0576 29.9914 19.5508 30.7351 18.8069C31.2335 18.3157 31.6292 17.7303 31.8995 17.0849C32.1699 16.4388 32.3092 15.7454 32.3092 15.0449C32.3092 14.3445 32.1699 13.6511 31.8995 13.005C31.6293 12.3596 31.2335 11.7743 30.7353 11.2831C29.9915 10.5391 29.0439 10.0322 28.0122 9.82661C26.9799 9.62085 25.9097 9.7259 24.9371 10.1285C23.9645 10.531 23.1332 11.213 22.5483 12.0882C21.9633 12.9633 21.6511 13.9923 21.6511 15.0449C21.6511 16.0976 21.9633 17.1265 22.5483 18.0017C23.1332 18.8768 23.9645 19.5588 24.9371 19.9614C25.9097 20.364 26.9799 20.469 28.0122 20.2633Z" stroke="black" stroke-opacity="0.2"/>
<path d="M13.2833 31.7002C12.9658 31.6608 12.645 31.7387 12.3809 31.9192C11.8567 32.2777 11.3301 32.632 10.7985 32.9774C9.72311 33.6763 8.43686 32.4491 9.07588 31.3368L10.0726 29.6141C10.2151 29.4057 10.2944 29.1605 10.3011 28.9081C10.3078 28.6557 10.2415 28.4068 10.1102 28.1911C9.97896 27.9754 9.78826 27.8021 9.561 27.6921C9.33375 27.5821 9.07957 27.5399 8.82896 27.5707C7.72277 27.7106 6.69454 28.2145 5.90619 29.003C5.60596 29.304 4.69295 30.2179 4.20158 33.7001C4.06172 34.7003 3.97356 35.7071 3.93744 36.7164C3.93295 36.8915 3.96358 37.0658 4.02753 37.229C4.09148 37.3921 4.18744 37.5408 4.30977 37.6663C4.4321 37.7917 4.57831 37.8914 4.73978 37.9595C4.90125 38.0275 5.07472 38.0626 5.24994 38.0625H5.28276C6.29284 38.0267 7.30041 37.9391 8.3015 37.8C11.7854 37.3078 12.6992 36.394 12.9994 36.0938C13.7916 35.3051 14.2943 34.272 14.426 33.162C14.4681 32.8166 14.3715 32.4686 14.1572 32.1945C13.9429 31.9204 13.6286 31.7426 13.2833 31.7002Z" fill="#364250"/>
<defs>
<filter id="filter0_i_14_4401" x="2.62646" y="2.62518" width="36.7487" height="38.7498" filterUnits="userSpaceOnUse" color-interpolation-filters="sRGB">
<feFlood flood-opacity="0" result="BackgroundImageFix"/>
<feBlend mode="normal" in="SourceGraphic" in2="BackgroundImageFix" result="shape"/>
<feColorMatrix in="SourceAlpha" type="matrix" values="0 0 0 0 0 0 0 0 0 0 0 0 0 0 0 0 0 0 127 0" result="hardAlpha"/>
<feOffset dy="2"/>
<feGaussianBlur stdDeviation="2"/>
<feComposite in2="hardAlpha" operator="arithmetic" k2="-1" k3="1"/>
<feColorMatrix type="matrix" values="0 0 0 0 1 0 0 0 0 1 0 0 0 0 1 0 0 0 0.25 0"/>
<feBlend mode="normal" in2="shape" result="effect1_innerShadow_14_4401"/>
</filter>
<linearGradient id="paint0_linear_14_4401" x1="21.0008" y1="2.62518" x2="21.0008" y2="39.375" gradientUnits="userSpaceOnUse">
<stop stop-color="#364353"/>
<stop offset="1" stop-color="#1C1C1E"/>
</linearGradient>
</defs>
</svg>
