<svg width="72" height="72" viewBox="0 0 72 72" fill="none" xmlns="http://www.w3.org/2000/svg">
<circle cx="35.2643" cy="35.2641" r="26.0326" transform="rotate(50.0482 35.2643 35.2641)" fill="url(#paint0_radial_14_4270)" stroke="white" stroke-width="2"/>
<path fill-rule="evenodd" clip-rule="evenodd" d="M57.0464 22.9194C49.1087 16.7595 40.9058 22.8746 31.4917 30.7605C22.0777 38.6463 14.6192 45.6502 19.2922 54.5448C18.1447 53.592 17.0666 52.5228 16.0747 51.3387C7.19698 40.7405 8.59165 24.9522 19.1898 16.0745C29.7879 7.19681 45.5762 8.59148 54.4539 19.1896C55.4458 20.3737 56.3094 21.6226 57.0464 22.9194Z" fill="white" fill-opacity="0.2"/>
<path fill-rule="evenodd" clip-rule="evenodd" d="M51.7433 16.6438C56.3618 25.7137 48.8354 33.5592 39.4336 41.4348C30.0754 49.2739 21.9883 54.5215 14.1119 48.3454C14.8546 49.659 15.727 50.9236 16.7308 52.1219C25.6085 62.72 41.3968 64.1147 51.995 55.237C62.5931 46.3593 63.9878 30.571 55.11 19.9729C54.0753 18.7376 52.9467 17.6273 51.7433 16.6438Z" fill="white" fill-opacity="0.2"/>
<g style="mix-blend-mode:lighten">
<ellipse cx="42.901" cy="28.8671" rx="18.3913" ry="15.0707" transform="rotate(50.0482 42.901 28.8671)" fill="url(#paint1_linear_14_4270)" fill-opacity="0.2"/>
</g>
<g style="mix-blend-mode:lighten">
<path d="M35.3254 59.2041C38.5698 56.4865 35.9124 47.9712 29.39 40.1849C22.8676 32.3985 14.9501 28.2895 11.7057 31.0071C8.4614 33.7248 10.1397 43.0602 16.6621 50.8465C23.1846 58.6329 32.0811 61.9218 35.3254 59.2041Z" fill="url(#paint2_linear_14_4270)" fill-opacity="0.2"/>
</g>
<defs>
<radialGradient id="paint0_radial_14_4270" cx="0" cy="0" r="1" gradientUnits="userSpaceOnUse" gradientTransform="translate(35.2643 35.2641) rotate(90) scale(25.0326)">
<stop stop-color="#DA1A99"/>
<stop offset="1" stop-color="#660043"/>
</radialGradient>
<linearGradient id="paint1_linear_14_4270" x1="42.901" y1="13.7964" x2="42.901" y2="43.9377" gradientUnits="userSpaceOnUse">
<stop stop-color="white"/>
<stop offset="0.739583" stop-color="white" stop-opacity="0"/>
</linearGradient>
<linearGradient id="paint2_linear_14_4270" x1="17.6412" y1="50.0264" x2="29.39" y2="40.1849" gradientUnits="userSpaceOnUse">
<stop offset="0.109375" stop-color="white"/>
<stop offset="0.739583" stop-color="white" stop-opacity="0"/>
</linearGradient>
</defs>
</svg>
