<svg width="272" height="50" viewBox="0 0 272 50" fill="none" xmlns="http://www.w3.org/2000/svg">
<rect x="45.946" y="1.21236" width="176.432" height="47.7838" rx="16.5405" fill="#41403F" stroke="#2B2B2B" stroke-width="1.57529"/>
<rect x="47.7838" y="9.87643" width="173.807" height="3.67568" rx="1.57529" fill="#373536"/>
<rect x="45.6833" y="17.2278" width="175.907" height="3.67568" rx="1.57529" fill="#373536"/>
<rect x="45.6833" y="23.0039" width="175.907" height="3.67568" rx="1.57529" fill="#373536"/>
<rect x="46.7336" y="30.3552" width="174.857" height="3.67568" rx="1.57529" fill="#373536"/>
<rect x="46.7336" y="37.7066" width="174.857" height="2.62548" rx="1.31274" fill="#373536"/>
<rect x="51.9845" y="42.9576" width="163.305" height="3.67568" rx="1.57529" fill="#373536"/>
<g filter="url(#filter0_d_3_56)">
<rect x="53.0348" y="7.25095" width="162.255" height="35.7066" rx="16.278" fill="url(#paint0_linear_3_56)" shape-rendering="crispEdges"/>
<rect x="51.722" y="5.9382" width="164.88" height="38.332" rx="17.5907" stroke="black" stroke-opacity="0.24" stroke-width="2.62548" shape-rendering="crispEdges"/>
</g>
<g style="mix-blend-mode:screen">
<rect x="71.4131" y="13.5521" width="131.274" height="11.5521" rx="5.77606" fill="white" fill-opacity="0.2"/>
</g>
<rect x="231.042" y="11.9768" width="40.9575" height="25.7297" fill="url(#paint1_linear_3_56)"/>
<rect x="231.042" y="17.7529" width="30.4556" height="14.1776" fill="url(#paint2_linear_3_56)"/>
<path d="M220.278 12.2394H228.942C231.987 12.2394 234.456 14.7079 234.456 17.7529V32.4556C234.456 35.2106 232.222 37.444 229.467 37.444H220.278V12.2394Z" fill="url(#paint3_linear_3_56)" stroke="black" stroke-width="0.525096"/>
<path d="M222.378 13.8147H226.316C228.492 13.8147 230.255 15.5779 230.255 17.7529V31.4054C230.255 33.8705 228.256 35.8688 225.791 35.8688H222.378V13.8147Z" fill="url(#paint4_linear_3_56)" stroke="black" stroke-width="0.525096"/>
<rect width="40.9575" height="25.7297" transform="matrix(-1 0 0 1 40.9575 11.9768)" fill="url(#paint5_linear_3_56)"/>
<rect width="30.4556" height="14.1776" transform="matrix(-1 0 0 1 40.9575 17.7529)" fill="url(#paint6_linear_3_56)"/>
<path d="M51.7219 12.2394H43.0579C40.0128 12.2394 37.5443 14.7079 37.5443 17.7529V32.4556C37.5443 35.2106 39.7777 37.444 42.5328 37.444H51.7219V12.2394Z" fill="url(#paint7_linear_3_56)" stroke="black" stroke-width="0.525096"/>
<path d="M49.6216 13.8147H45.6834C43.5084 13.8147 41.7452 15.5779 41.7452 17.7529V31.4054C41.7452 33.8705 43.7435 35.8688 46.2085 35.8688H49.6216V13.8147Z" fill="url(#paint8_linear_3_56)" stroke="black" stroke-width="0.525096"/>
<defs>
<filter id="filter0_d_3_56" x="49.3591" y="4.62546" width="168.556" height="42.0077" filterUnits="userSpaceOnUse" color-interpolation-filters="sRGB">
<feFlood flood-opacity="0" result="BackgroundImageFix"/>
<feColorMatrix in="SourceAlpha" type="matrix" values="0 0 0 0 0 0 0 0 0 0 0 0 0 0 0 0 0 0 127 0" result="hardAlpha"/>
<feOffset dx="-1.05019" dy="1.05019"/>
<feComposite in2="hardAlpha" operator="out"/>
<feColorMatrix type="matrix" values="0 0 0 0 0.1125 0 0 0 0 0.1125 0 0 0 0 0.1125 0 0 0 0.25 0"/>
<feBlend mode="normal" in2="BackgroundImageFix" result="effect1_dropShadow_3_56"/>
<feBlend mode="normal" in="SourceGraphic" in2="effect1_dropShadow_3_56" result="shape"/>
</filter>
<linearGradient id="paint0_linear_3_56" x1="134.162" y1="7.25095" x2="134.162" y2="42.9575" gradientUnits="userSpaceOnUse">
<stop stop-color="#BCBCBC"/>
<stop offset="0.265625" stop-color="#A4A4A4"/>
<stop offset="0.463542" stop-color="#636363"/>
<stop offset="0.614583" stop-color="#2C2C2C"/>
<stop offset="0.78125" stop-color="#6C6C6C"/>
<stop offset="0.880208" stop-color="#6D6D6D"/>
<stop offset="1" stop-color="#707070"/>
</linearGradient>
<linearGradient id="paint1_linear_3_56" x1="231.042" y1="25.1043" x2="270.425" y2="24.3166" gradientUnits="userSpaceOnUse">
<stop stop-color="#FF0E90"/>
<stop offset="1" stop-color="#FE046D" stop-opacity="0"/>
</linearGradient>
<linearGradient id="paint2_linear_3_56" x1="231.042" y1="24.9864" x2="260.317" y2="24.1963" gradientUnits="userSpaceOnUse">
<stop stop-color="#FF7DDB"/>
<stop offset="1" stop-color="#FFAECB" stop-opacity="0"/>
</linearGradient>
<linearGradient id="paint3_linear_3_56" x1="227.367" y1="11.9768" x2="227.367" y2="37.7066" gradientUnits="userSpaceOnUse">
<stop stop-color="#7F7E7C"/>
<stop offset="0.401042" stop-color="#FDFDFD"/>
<stop offset="0.65625" stop-color="#F5F5F5"/>
<stop offset="1" stop-color="#BDBDBD"/>
</linearGradient>
<linearGradient id="paint4_linear_3_56" x1="230.517" y1="25.1043" x2="220.97" y2="25.1043" gradientUnits="userSpaceOnUse">
<stop stop-color="#888888"/>
<stop offset="0.401042" stop-color="#888888"/>
<stop offset="0.65625" stop-color="#505050"/>
<stop offset="1" stop-color="#323232"/>
</linearGradient>
<linearGradient id="paint5_linear_3_56" x1="7.54144e-09" y1="13.1274" x2="39.3822" y2="12.3398" gradientUnits="userSpaceOnUse">
<stop stop-color="#FF0E90"/>
<stop offset="1" stop-color="#FE046D" stop-opacity="0"/>
</linearGradient>
<linearGradient id="paint6_linear_3_56" x1="5.60774e-09" y1="7.23347" x2="29.2746" y2="6.44336" gradientUnits="userSpaceOnUse">
<stop stop-color="#FF7DDB"/>
<stop offset="1" stop-color="#FFAECB" stop-opacity="0"/>
</linearGradient>
<linearGradient id="paint7_linear_3_56" x1="44.6331" y1="11.9768" x2="44.6331" y2="37.7066" gradientUnits="userSpaceOnUse">
<stop stop-color="#7F7E7C"/>
<stop offset="0.401042" stop-color="#FDFDFD"/>
<stop offset="0.65625" stop-color="#F5F5F5"/>
<stop offset="1" stop-color="#BDBDBD"/>
</linearGradient>
<linearGradient id="paint8_linear_3_56" x1="41.4826" y1="25.1043" x2="51.0298" y2="25.1043" gradientUnits="userSpaceOnUse">
<stop stop-color="#888888"/>
<stop offset="0.401042" stop-color="#888888"/>
<stop offset="0.65625" stop-color="#505050"/>
<stop offset="1" stop-color="#323232"/>
</linearGradient>
</defs>
</svg>
